<?xml version="1.0" encoding="UTF-8" standalone="no"?>
<svg
   width="144.07985"
   height="176.19"
   viewBox="0 0 144.07985 176.19"
   version="1.1"
   id="svg4"
   sodipodi:docname="logo.svg"
   xml:space="preserve"
   inkscape:version="1.4.3 (0d15f750, 2025-12-25)"
   xmlns:inkscape="http://www.inkscape.org/namespaces/inkscape"
   xmlns:sodipodi="http://sodipodi.sourceforge.net/DTD/sodipodi-0.dtd"
   xmlns="http://www.w3.org/2000/svg"
   xmlns:svg="http://www.w3.org/2000/svg"><defs
     id="defs4" /><sodipodi:namedview
     id="namedview4"
     pagecolor="#ffffff"
     bordercolor="#000000"
     borderopacity="0.25"
     inkscape:showpageshadow="2"
     inkscape:pageopacity="0.0"
     inkscape:pagecheckerboard="0"
     inkscape:deskcolor="#d1d1d1"
     inkscape:zoom="2.8284271"
     inkscape:cx="95.812969"
     inkscape:cy="104.29825"
     inkscape:window-width="1512"
     inkscape:window-height="949"
     inkscape:window-x="0"
     inkscape:window-y="153"
     inkscape:window-maximized="0"
     inkscape:current-layer="g5" /><g
     id="g4"
     transform="translate(-2,-3.75)"><rect
       style="fill:#ffffff;fill-opacity:1;stroke-width:1.16309"
       id="rect6-4"
       width="73"
       height="59"
       x="73.079849"
       y="120.87549" /><rect
       style="fill:#ffffff;fill-opacity:1;stroke-width:1.16309"
       id="rect6"
       width="73"
       height="59"
       x="2.25"
       y="3.75" /><path
       d="M 146,174.15 140.15,180 H 79.8 l -3.4,-3.4 -3.4,-3.4 v -22.65 c 0,-23.15 0.65,-27.59 4.23,-28.8 1.01,-0.34 0.98,-0.77 -0.1,-2.09 -1.78,-2.15 -2.76,-2.09 -5.86,0.34 -2.41,1.9 -4.05,2 -32.5,2 H 8.8 L 2,115.2 V 92.55 C 2,69.41 2.6,65.27 6.23,63.59 7.26,63.11 7.26,62.89 6.23,62.41 2.62,60.74 2,56.55 2,34.1 2,20.41 2.41,11.19 3.09,9.71 5.57,4.26 7.26,4 39.48,4 H 69.15 L 72.08,6.92 75,9.85 v 6.025 17.915 c 0,22.94 -0.09,24.05 -2.14,26.66 l -2.14,2.72 2.14,2.14 c 1.18,1.17 2.14,1.6 2.14,0.94 0,-0.66 1.33,-1.89 2.95,-2.72 C 80.4,62.26 85.93,62 110.53,62 h 29.62 l 2.93,2.92 2.92,2.93 v 23.94 c 0,22.71 -0.11,24.08 -2.07,26.58 l -2.08,2.63 2.08,2.63 c 1.96,2.5 2.07,3.87 2.07,26.58 z m -71.1,-2.1 5.95,5.95 h 58.24 l 4.91,-4.91 v -46.18 l -2.45,-2.46 c -1.96,-1.95 -3.48,-2.45 -7.5,-2.45 -2.78,0 -5.05,0.45 -5.05,1 0,0.63 -6.5,1 -17.5,1 H 94 v 45 h -8 v -47 h -2.89 c -1.59,0 -3.95,0.86 -5.25,1.91 -2.34,1.89 -2.36,2.11 -2.66,25.02 z M 6.92,117.08 9.85,120 H 68.09 L 73,115.09 V 68.91 L 70.55,66.45 C 68.66,64.57 67.04,64 63.55,64 H 59 v 48 H 51 L 50.99,95.75 c 0,-8.94 -0.29,-19.29 -0.64,-23 L 49.71,66 H 24 v 46 H 16.04 L 15.77,88.26 C 15.52,66.18 15.37,64.5 13.67,64.17 10.77,63.62 6.36,65.91 5.13,68.61 4.4,70.21 4,78.75 4,92.62 v 21.53 z m 1.4,-56.25 c 1.2,0.6 3.3,0.99 4.68,0.87 L 15.5,61.5 16.04,13 h 7.92 l 0.27,22.25 0.27,22.25 h 26 L 51.04,13 H 59 l 0.01,22.25 c 0.01,12.24 0.29,23.26 0.62,24.5 0.89,3.31 7.53,3.18 10.92,-0.2 L 73,57.09 V 10.91 L 70.55,8.45 68.09,6 H 10.11 L 4.5,10.82 4.19,32.57 c -0.32,23.02 0.16,26.3 4.13,28.26 z m 69.13,56.72 c 1.54,1.53 3.6,2.45 5.5,2.45 H 86 V 69.96 l 43.5,0.54 0.53,49.5 h 4.53 c 3.48,0 5.1,-0.57 6.99,-2.45 L 144,115.09 V 68.91 L 139.09,64 H 79.91 L 75,68.91 v 46.18 z m 25.8,-2.29 c 4.54,0.18 9.21,0.42 10.37,0.54 1.17,0.11 3.54,-0.08 5.26,-0.42 L 122,114.75 V 78 H 95 v 36.92 z"
       fill="#080709"
       id="path1"
       sodipodi:nodetypes="cccccscccsccsccscsccccscccscscccscccscccccccsssccccssccccccccsccccccccccccsccccccccccccccccccccccccsccccscccccccccccccccc" /><path
       d="m 19.09,120 10.2,-0.35 c 10.52,-0.37 19.5,-1.04 19.94,-1.48 0.45,-0.45 0.69,-9.51 0.54,-20.14 C 49.5,78.73 49.5,78.71 47,76.86 45.57,75.8 41.92,74.74 38.5,74.39 c -5.35,-0.55 -6.22,-0.38 -8,1.6 -1.78,1.97 -2.05,4.03 -2.5,19.06 -0.54,18.09 -1.22,20.55 -5.01,18.17 C 21.91,112.55 19.9,112 18.53,112 H 24 V 66 h 25.71 l 0.64,6.75 c 0.35,3.71 0.64,14.06 0.64,23 L 51,112 h 8 V 64 h 4.55 c 3.49,0 5.11,0.57 7,2.45 L 73,68.91 v 46.18 L 68.09,120 Z M 77.45,117.55 75,115.09 V 68.91 L 79.91,64 h 35.64 C 101.91,64 92,64.39 92,64.92 92,68.87 92.64,69 111.5,69 h 0.22 c 13.66,0 17.64,0 18.8,1.81 0.48,0.75 0.48,1.8 0.48,3.29 v 0.05 c 0,1.1 0.68,2.67 1.5,3.49 0.82,0.83 1.5,2.77 1.5,4.31 0,1.54 -0.68,4.42 -1.5,6.4 -1.74,4.15 -2.11,23.93 -0.52,28.08 0.82,2.16 1.6,2.57 4.94,2.57 1.3,0 2.36,-0.04 3.23,-0.28 -1.42,0.96 -2.98,1.28 -5.59,1.28 h -4.53 L 129.5,70.5 86,69.96 V 120 h -3.05 c -1.9,0 -3.96,-0.92 -5.5,-2.45 z m 66.52,66.39 C 0,0 0,0 143.97,183.94 Z M 103.25,115.26 95,114.92 V 78 h 27 v 36.75 l -3.12,0.63 c -0.04,0 -0.07,0.01 -0.1,0.01 0.21,-0.1 0.4,-0.23 0.57,-0.38 1.69,-1.44 1.68,-4.88 1.66,-12.23 C 121,101.83 121,100.82 121,99.74 V 84.71 l -6.49,0.61 c -11.25,1.05 -12.52,2.73 -12.5,16.5 0.02,12.21 0.33,13 5.34,13.45 1.4,0.13 2.66,0.26 3.79,0.36 -2.06,-0.11 -5,-0.26 -7.89,-0.37 z M 87.19,169 H 94 v -45 h 13.38 c -3.12,0.17 -5.38,0.55 -5.38,1.19 0,1.64 -4.07,5.81 -5.67,5.81 -1.06,0 -1.33,3.88 -1.33,18.94 0,11.33 -0.39,19.19 -0.98,19.55 -0.54,0.33 -2.57,0.31 -4.5,-0.05 z m 27.93,-45.01 c 8.79,-0.08 13.88,-0.43 13.88,-0.99 0,-0.55 2.27,-1 5.05,-1 h 0.13 c -1.3,0.22 -2.31,0.85 -2.65,1.91 -0.86,2.71 -3.43,3.39 -6.14,1.61 -1.25,-0.82 -5.63,-1.34 -10.27,-1.53 z m 27.47,-7.49 c 1.33,-3.05 1.41,-9.81 1.41,-24.77 v 23.36 z m -4.85,5.77 c 1.56,0.33 2.6,0.98 3.81,2.18 -1.05,-1.04 -2.42,-1.77 -3.81,-2.18 z"
       fill="rgb(114,132,202)"
       id="path2"
       style="fill:#4a2377;fill-opacity:1"
       sodipodi:nodetypes="ccscccccccccccccccsccccccccccssscsscsccscsccccsccccccccccccsccccccccccsssccccssccccccccccc" /><path
       d="M 6.92,117.08 4,114.15 V 92.62 C 4,78.75 4.4,70.21 5.13,68.61 c 1.23,-2.7 5.64,-4.99 8.54,-4.44 1.7,0.33 1.85,2.01 2.1,24.09 L 16.04,112 h 2.49 c 1.37,0 3.38,0.55 4.46,1.22 3.79,2.38 4.47,-0.08 5.01,-18.17 0.45,-15.03 0.72,-17.09 2.5,-19.06 1.78,-1.98 2.65,-2.15 8,-1.6 3.42,0.35 7.07,1.41 8.5,2.47 2.5,1.85 2.5,1.87 2.77,21.17 0.15,10.63 -0.09,19.69 -0.54,20.14 -0.44,0.44 -9.42,1.11 -19.94,1.48 L 19.09,120 H 9.85 Z m 80.27,51.92 2.33,0.44 c 1.93,0.36 3.96,0.38 4.5,0.05 0.59,-0.36 0.98,-8.22 0.98,-19.55 0,-15.06 0.27,-18.94 1.33,-18.94 1.6,0 5.67,-4.17 5.67,-5.81 0,-0.64 2.26,-1.02 5.38,-1.19 h 4.12 c 1.27,0 2.48,0 3.62,-0.01 4.64,0.19 9.02,0.71 10.27,1.53 2.71,1.78 5.28,1.1 6.14,-1.61 0.34,-1.06 1.35,-1.69 2.65,-1.91 1.48,0 2.62,0.08 3.56,0.27 1.39,0.41 2.76,1.14 3.81,2.18 l 2.45,2.46 v 46.18 l -2.52,2.52 c 2.34,-2.34 2.37,-2.63 1.8,-15.75 -0.34,-7.97 -1.02,-13.66 -1.68,-14.11 -0.6,-0.41 -8.73,-0.63 -18.05,-0.5 l -16.94,0.25 -1.79,3.06 c -0.98,1.69 -2.49,6.64 -3.35,11 -1.92,9.75 -2.82,12.02 -5.31,13.36 -1.51,0.8 -2.51,0.59 -4.46,-0.94 -1.38,-1.09 -3.23,-1.98 -4.11,-1.98 -0.55,0 -0.91,-0.24 -1.16,-1 z m 55.4,-52.5 -1.04,1.05 c -0.48,0.47 -0.93,0.86 -1.4,1.17 -0.87,0.24 -1.93,0.28 -3.23,0.28 -3.34,0 -4.12,-0.41 -4.94,-2.57 -1.59,-4.15 -1.22,-23.93 0.52,-28.08 0.82,-1.98 1.5,-4.86 1.5,-6.4 0,-1.54 -0.68,-3.48 -1.5,-4.31 -0.82,-0.82 -1.5,-2.39 -1.5,-3.49 V 74.1 c 0,-1.49 0,-2.54 -0.48,-3.29 C 129.36,69 125.38,69 111.72,69 H 111.5 C 92.64,69 92,68.87 92,64.92 92,64.39 101.91,64 115.55,64 h 23.54 l 4.91,4.91 v 22.82 c 0,14.96 -0.08,21.72 -1.41,24.77 z M 50.8,32.85 50.5,57.5 h -26 L 24.23,35.25 23.99,15.07 C 24,15.3 24,15.56 24,15.84 c 0,2.04 0.69,3.15 2.45,3.95 1.66,0.76 2.82,2.5 3.62,5.41 2.51,9.19 3.04,10.54 4.99,12.64 2.88,3.08 9.5,2.92 13.19,-0.32 1.6,-1.41 2.27,-2.09 2.55,-4.67 z m 62.82,82.95 c -0.42,-0.04 -1.31,-0.1 -2.48,-0.17 -1.13,-0.1 -2.39,-0.23 -3.79,-0.36 -5.01,-0.45 -5.32,-1.24 -5.34,-13.45 -0.02,-13.77 1.25,-15.45 12.5,-16.5 L 121,84.71 v 15.03 c 0,1.08 0,2.09 0.01,3.04 0.02,7.35 0.03,10.79 -1.66,12.23 -0.17,0.15 -0.36,0.28 -0.57,0.38 -1.71,0.34 -4.01,0.52 -5.16,0.41 z M 72.99,21.7 C 73,11.57 72.85,10.76 70.55,8.45 L 73,10.91 v 46.18 l -2.45,2.46 C 67.16,62.93 60.52,63.06 59.63,59.75 59.3,58.51 59.02,47.49 59.01,35.25 L 59,15.4 c 0.05,1.36 1.17,3.09 2.8,4.3 1.66,1.22 3.34,3.84 4.12,6.43 2.29,7.61 3.23,9.71 4.57,10.23 1.93,0.74 2.48,-2.52 2.5,-14.66 z m 2.27,122.73 c 0.25,-18.45 0.42,-18.76 2.6,-20.52 1.3,-1.05 3.66,-1.91 5.25,-1.91 H 86 v 42.18 c -0.01,-0.72 -0.02,-1.53 -0.02,-2.43 -0.03,-11.21 -2.26,-16.33 -7.38,-16.93 z M 8.32,60.83 C 4.87,59.13 4.06,56.43 4.11,40.71 l 2.57,-0.42 c 1.55,-0.25 4.28,-1.19 6.07,-2.1 L 15.77,36.66 15.5,61.5 13,61.7 C 11.62,61.82 9.52,61.43 8.32,60.83 Z M 74.9,172.05 75,164.03 v 8.12 z M 51,13 h 0.04 L 51,16.16 Z M 16,16.22 V 13 h 0.04 z"
       fill="rgb(201,169,232)"
       id="path3"
       style="fill:#8cc5e3;fill-opacity:1" /><g
       id="g5"
       transform="matrix(0.04281334,0,0,0.04281334,32.992651,70.409631)"><path
         d="m -194.6973,1330 c -169.39766,15.6 -281.82038,33.0667 -360.17561,55.8667 -52.39345,15.3333 -89.75021,34.9333 -105.60922,55.6 -6.46107,8.5333 -11.2775,20.9333 -12.09982,31.0666 -0.46991,7.2 0,10.2667 2.58443,18.2667 5.8737,18.5333 17.62111,31.4667 40.64603,44.9333 35.00728,20.4 77.29796,35.3334 217.91447,76.8 140.73398,41.4667 195.82933,64.1334 216.03488,88.6667 6.46107,7.8667 6.22612,9.0667 -2.7019,16.5333 -14.68427,12.2667 -43.93532,24.6667 -117.59159,49.6 -73.89121,25.0667 -108.89849,39.0667 -134.15543,53.3333 -29.13358,16.5334 -44.87511,31.6 -53.45072,51.3334 -2.81937,6.4 -3.17179,8.8 -3.28926,20.6666 0,13.2 0.11747,13.6 5.05138,25.0667 4.11158,9.2 7.16592,14 15.27163,23.3333 12.2173,13.8667 23.72977,22.8 44.28774,34.1334 34.88981,19.2 72.36405,31.4666 179.73538,58.6666 128.28171,32.4 186.548872,52.2667 242.114127,82.6667 57.797259,31.4667 93.979286,64.6667 125.579813,115.3333 11.62994,18.5334 30.07337,40.9334 45.22753,54.6667 31.01317,28.1333 76.7106,54.6667 127.45941,74.2667 61.08654,23.4666 132.62826,40 202.05546,46.6666 l 10.57266,1.0667 -17.03374,0.6667 c -9.39794,0.4 22.43755,0.9333 70.71942,1.0666 53.9206,0.1334 84.58895,-5.4279 92.80453,-1.0666 2.81938,-0.6667 21.50758,-9.4925 30.20066,-10.5592 54.74294,-7.3333 80.03786,-27.7978 107.87922,-50.3311 46.63722,-37.6 68.20464,-80.0431 31.20031,-139.3764 -9.63288,-15.3333 -37.94414,-47.6 -53.21576,-60.5333 -62.73118,-53.2 -149.66203,-94.6667 -279.58838,-133.2 -50.98376,-15.0667 -103.84711,-28.2667 -216.73972,-54 -119.58864,-27.2 -132.51079,-30.4 -164.463749,-39.6 -40.17614,-11.4667 -69.662142,-24.4 -77.767856,-34 -2.114533,-2.4 -4.581489,-6.5334 -5.5212828,-9.0667 -1.5271627,-4.2667 -1.5271627,-5.2 0.1174745,-9.0667 5.6387573,-13.3333 31.3655823,-25.4666 97.3860333,-46.1333 71.07183,-22.4 96.32876,-33.2 115.82946,-49.8667 18.56092,-15.8666 25.13946,-37.7333 17.97355,-59.8666 -12.33479,-37.7333 -58.73705,-66.9333 -156.827929,-98.9333 -57.91474,-18.8 -111.482932,-32.5334 -256.093551,-65.6 -109.48587,-25.0667 -141.67377,-32.8 -175.03642,-42.1334 -56.38756,-15.7333 -87.28326,-29.0666 -93.15697,-40.1333 -7.28339,-14.1333 3.99413,-28.4 35.94708,-45.6 43.81784,-23.6 127.57688,-46.5333 229.89682,-62.8 9.9853,-1.6 19.97061,-3.6 22.08514,-4.6667 7.87076,-3.6 9.16297,-18.4 1.99705,-23.7333 -3.52421,-2.6667 -15.74152,-2.6667 -44.05278,0 z"
         id="path1-4"
         style="fill:#8cc5e3;fill-opacity:1;stroke-width:0.125152"
         sodipodi:nodetypes="cccccccccccccccccccccccccccccccccccccccccccccccc" /><path
         d="m -182.51114,1337.5043 c -151.1544,15.6 -251.4698,33.0667 -321.3866,55.8667 -46.7509,15.3333 -68.04094,34.9333 -82.19204,55.6 -5.7652,8.5333 -3.52602,8.5463 -4.25972,18.6796 -0.4193,7.2 2.3061,18.2667 2.3061,18.2667 5.2411,18.5333 15.7234,31.4667 36.2686,44.9333 16.09817,10.5517 46.46801,28.0344 171.94081,69.501 125.5777,41.4667 288.28727,76.5204 306.31677,101.0537 5.7653,7.8667 5.5556,9.0667 -2.4109,16.5333 -13.1028,12.2667 -39.2037,24.6667 -104.9276,49.6 -65.9335,25.0667 -97.1706,39.0667 -119.7075,53.3333 -25.9961,16.5334 -40.0423,31.6 -47.6944,51.3334 -2.5157,6.4 -2.8302,8.8 -2.935,20.6666 0,13.2 0.1048,13.6 4.5074,25.0667 3.6688,9.2 6.3942,14 13.6269,23.3333 10.9016,13.8667 21.1742,22.8 39.5182,34.1334 31.1324,19.2 181.35683,31.4666 277.16483,58.6666 342.16747,96.8514 275.50531,214.9689 299.70088,291.0352 13.61852,42.8141 -2.17112,57.4183 204.37364,79.6451 l 9.434,1.0667 -15.1993,0.6667 c -8.3858,0.4 20.0212,0.9333 63.1033,1.0666 48.1137,0.1334 80.0846,-0.2666 82.81,-1.0666 2.5157,-0.6667 10.9016,-2.2667 18.6585,-3.3334 48.8473,-7.3333 94.4452,-25.7333 119.28821,-48.2666 41.6146,-37.6 -44.38717,-86.4137 -77.40637,-145.747 -8.5954,-15.3333 -33.85771,-47.6 -47.48461,-60.5333 -55.9754,-53.2 -133.5442,-94.6667 -249.4782,-133.2 -45.493,-15.0667 -92.6633,-28.2667 -193.3979,-54 -106.709599,-27.2 -118.240099,-30.4 -146.751799,-39.6 -35.8494,-11.4667 -62.1599,-24.4 -69.3927,-34 -1.8868,-2.4 -4.0881,-6.5334 -4.9267,-9.0667 -1.3627,-4.2667 -1.3627,-5.2 0.1049,-9.0667 5.0315,-13.3333 27.9876003,-25.4666 86.898,-46.1333 15.110273,-5.3371 27.89972,-10.0158 38.851839,-14.2721 35.0139,-13.6075 51.2488,-22.899 64.50336,-35.5946 16.562,-15.8666 22.4321,-37.7333 16.0379,-59.8666 -11.0064,-37.7333 -52.4114,-66.9333 -139.938299,-98.9333 -51.6776999,-18.8 -165.540951,-32.5334 -294.577751,-65.6 -97.6948,-25.0667 -126.4162,-32.8 -156.1859,-42.1334 -50.3149,-15.7333 -77.8833,-29.0666 -83.1244,-40.1333 -6.499,-14.1333 3.5639,-28.4 32.0757,-45.6 39.0989,-23.6 167.34439,-62.8 271.20226,-62.8 8.91,-1.6 17.8199,-3.6 19.7067,-4.6667 7.02309,-3.6 8.17619,-18.4 1.782,-23.7333 -3.1447,-2.6667 8.45909,4.6323 -16.80311,7.299 z"
         id="path1-4-5"
         style="fill:#4a2377;fill-opacity:1;stroke-width:0.118221"
         sodipodi:nodetypes="cccccscccccccccccsccccccccccccccccsccccccccccc" /><text
         xml:space="preserve"
         style="font-size:825.143px;writing-mode:lr-tb;direction:ltr;fill:#4a2377;fill-opacity:1;stroke-width:89.4113844;stroke-dasharray:none"
         x="1310.184"
         y="-514.71313"
         id="text5"><tspan
           id="tspan5"
           style="font-style:normal;font-variant:normal;font-weight:bold;font-stretch:normal;font-size:825.143px;font-family:'Avenir Next';-inkscape-font-specification:'Avenir Next, Bold';font-variant-ligatures:normal;font-variant-caps:normal;font-variant-numeric:normal;font-variant-east-asian:normal;fill:#4a2377;fill-opacity:1;stroke-width:89.4113844;stroke-dasharray:none"
           x="1310.184"
           y="-514.71313"
           sodipodi:role="line">2D</tspan></text></g></g></svg>
